 <svg height="0" width="0">
 <defs>
 <clipPath id="svgPath">
 <path


       style="fill:none;fill-rule:evenodd;stroke:#999;stroke-width:1.00160503px;stroke-linecap:butt;stroke-linejoin:miter;stroke-opacity:1"
       d="m 165.53009,84.763431 -10.03213,0 a 1.001605,1.001605 0 0 0 -1.00161,1.001605 c -0,0 0,15.000004 0,15.000004 l 1.00161,-1.001605 -9.03051,0 c 0,-3.35666 0,-13.998399 0,-13.998399 a 1.001605,1.001605 0 0 0 -1.00161,-1.001605 l -5.01607,0 a 1.001605,1.001605 0 0 0 -1.00161,1.001605 c 0,0 0,19.337834 0,23.998404 l -13.04498,0 c 0,-3.35666 0,-13.998404 0,-13.998404 a 1.001605,1.001605 0 0 0 -1.0016,-1.001605 l -4.01446,0 c 0,-2.533751 0,-8.998395 0,-8.998395 a 1.001605,1.001605 0 0 0 -1.0016,-1.001605 l -10.03213,0 a 1.001605,1.001605 0 0 0 -1.0016,1.001605 c 0,0 -10e-6,14.948434 0,18.998404 l -8.02892,0 c 0,-4.04997 1e-5,-18.998404 0,-18.998404 a 1.0016138,1.001605 0 0 0 -1.00161,-1.001605 l -10.03212,0 a 1.001605,1.001605 0 0 0 -1.001605,1.001605 c 0,0 0,32.806174 0,38.998404 l -8.02892,0 c 0,-2.53376 0,-8.9984 0,-8.9984 0,0 0,-10 0,-10 a 1.001605,1.001605 0 0 0 -1.001605,-1.0016 l -9.030515,0 c 0,-2.53375 0,-8.998404 0,-8.998404 A 1.001605,1.001605 0 0 0 70.22489,94.763431 l -4.014465,0 c 0,-2.533751 0,-8.998395 0,-8.998395 A 1.001605,1.001605 0 0 0 65.20882,84.763431 l -10.03212,0 a 1.001605,1.001605 0 0 0 -1.001605,1.001605 c 0,0 0,10.641739 0,13.998399 l -8.02892,0 c 0,-3.35666 0,-13.998399 0,-13.998399 A 1.001605,1.001605 0 0 0 45.14457,84.763431 l -5.01606,0 a 1.001605,1.001605 0 0 0 -1.001605,1.001605 c 0,0 0,19.337814 0,23.998404 l -4.014465,0 a 1.001605,1.001605 0 0 0 -1.001605,1.0016 c 0,0 0,6.46464 0,8.99839 l -13.04498,1e-5 c 0,-5.21247 0,-28.998404 0,-28.998404 A 1.001605,1.001605 0 0 0 20.06425,89.763431 l -9.030515,0 c 0,-1.459416 0,-3.998395 0,-3.998395 A 1.001605,1.001605 0 0 0 10.03213,84.763431 l -10.03213,0 a 1.001605,1.001605 90 0 0 0,2.00321 l 9.030525,0 c 0,1.459416 0,3.998395 0,3.998395 a 1.001605,1.001605 0 0 0 1.001605,1.001605 l 9.030515,0 c 0,5.212515 0,28.998369 0,28.998369 a 1.001605,1.0016313 0 0 0 1.001605,1.00163 l 15.04819,0 a 1.001605,1.001605 0 0 0 1.001605,-1.0016 c 0,0 0,-6.46464 0,-8.9984 l 4.014465,0 a 1.001605,1.001605 0 0 0 1.001605,-1.0016 c 0,0 0,-19.337814 0,-23.998399 l 3.01285,0 c 0,3.35666 0,13.998399 0,13.998399 a 1.001605,1.001605 0 0 0 1.001605,1.0016 l 10.03213,0 a 1.001605,1.001605 0 0 0 1.001605,-1.0016 c 0,0 0,-10.641739 0,-13.998399 l 8.02891,0 c 0,2.533751 0,8.998395 0,8.998395 a 1.0016072,1.001605 0 0 0 1.001607,1.001605 l 4.014463,0 c 0,2.533751 0,8.998389 0,8.998389 a 1.001605,1.0016138 0 0 0 1.001605,1.00161 l 9.030515,0 c 0,2.53376 0,8.9984 0,8.9984 0,0 0,10 0,10 a 1.001605,1.001605 0 0 0 1.001605,1.0016 l 10.03213,0 a 1.001605,1.00164 0 0 0 1.001605,-1.00164 c 0,0 0,-32.806044 0,-38.998359 l 8.02892,0 c 0,4.049967 0,18.998399 0,18.998399 a 1.001605,1.001605 0 0 0 1.001605,1.0016 l 10.03211,0 a 1.0016138,1.001605 0 0 0 1.00162,-1.0016 c -1e-5,0 0,-14.948432 0,-18.998399 l 8.02891,0 c 1e-5,2.533751 1e-5,8.998395 1e-5,8.998395 a 1.001605,1.001605 0 0 0 1.0016,1.001605 l 4.01446,0 c 0,3.356659 -1e-5,13.998399 -1e-5,13.998399 a 1.001605,1.001605 0 0 0 1.00161,1.0016 l 15.04819,0 a 1.001605,1.0016159 0 0 0 1.00161,-1.00161 c -1e-5,0 0,-19.337805 0,-23.998389 l 3.01285,0 c 0,3.35666 1e-5,13.998399 0,13.998399 a 1.001605,1.001605 0 0 0 1.00161,1.0016 l 10.03212,0 a 1.0016094,1.001605 0 0 0 1.00161,-1.0016 c -1e-5,0 0,-10.641739 0,-13.998399 l 9.03052,0 a 1.001605,1.001605 90 0 0 0,-2.00321 z"
       id="path3361-5"
       inkscape:connector-curvature="0"
       inkscape:path-effect="#path-effect4282"
       inkscape:original-d="m 165.53009,85.765036 -10.03213,0 0,15.000004 -10.03212,0 0,-15.000004 -5.01607,0 0,25.000004 -15.04819,0 0,-15.000004 -5.01606,0 0,-10 -10.03213,0 0,20.000004 -10.03212,0 0,-20.000004 -10.03213,0 0,40.000004 -10.03213,0 0,-20 -10.03212,0 0,-10.000004 -5.01607,0 0,-10 -10.03212,0 0,15.000004 -10.03213,0 0,-15.000004 -5.01606,0 0,25.000004 -5.01607,0 0,10 -15.04819,0 0,-30.000004 -10.03212,0 0,-5 -10.03213,0" />
       </clipPath>
       </defs>
       </svg>