<?xml version="1.0" encoding="UTF-8" standalone="no"?>
<!-- Created with Inkscape (http://www.inkscape.org/) -->

<svg
   xmlns:dc="http://purl.org/dc/elements/1.1/"
   xmlns:cc="http://creativecommons.org/ns#"
   xmlns:rdf="http://www.w3.org/1999/02/22-rdf-syntax-ns#"
   xmlns:svg="http://www.w3.org/2000/svg"
   xmlns="http://www.w3.org/2000/svg"
   xmlns:sodipodi="http://sodipodi.sourceforge.net/DTD/sodipodi-0.dtd"
   xmlns:inkscape="http://www.inkscape.org/namespaces/inkscape"
   width="165.53009"
   height="129.71143"
   viewBox="0 0 165.53009 129.71143"
   id="svg2"
   version="1.1"
   inkscape:version="0.91 r13725"
   sodipodi:docname="lowcities.svg">
  <defs
     id="defs4">
    <inkscape:path-effect
       effect="powerstroke"
       id="path-effect3370"
       is_visible="true"
       offset_points="0,1.001605 | 17.5,1.001605 | 35,1.001605"
       sort_points="true"
       interpolator_type=""
       interpolator_beta="0.2"
       start_linecap_type="round"
       linejoin_type="round"
       miter_limit="4"
       end_linecap_type="round" />
    <inkscape:path-effect
       effect="powerstroke"
       id="path-effect3368"
       is_visible="true"
       offset_points="0,1 | 17.5,1 | 35,1"
       sort_points="true"
       interpolator_type=""
       interpolator_beta="0.2"
       start_linecap_type="round"
       linejoin_type="round"
       miter_limit="4"
       end_linecap_type="round" />
    <inkscape:perspective
       sodipodi:type="inkscape:persp3d"
       inkscape:vp_x="0 : 63.132925 : 1"
       inkscape:vp_y="0 : 1000 : 0"
       inkscape:vp_z="165.53009 : 63.132925 : 1"
       inkscape:persp3d-origin="82.765045 : 42.088617 : 1"
       id="perspective7354" />
  </defs>
  <sodipodi:namedview
     id="base"
     pagecolor="#ffffff"
     bordercolor="#666666"
     borderopacity="1.0"
     inkscape:pageopacity="0.0"
     inkscape:pageshadow="2"
     inkscape:zoom="4.3299648"
     inkscape:cx="67.750579"
     inkscape:cy="49.907305"
     inkscape:document-units="px"
     inkscape:current-layer="layer5"
     showgrid="true"
     inkscape:window-width="1440"
     inkscape:window-height="851"
     inkscape:window-x="67"
     inkscape:window-y="0"
     inkscape:window-maximized="0"
     showguides="false"
     units="px"
     fit-margin-top="0"
     fit-margin-left="0"
     fit-margin-right="0"
     fit-margin-bottom="0">
    <inkscape:grid
       type="xygrid"
       id="grid3359"
       originx="-104.70682"
       originy="-684.23417" />
  </sodipodi:namedview>
  <metadata
     id="metadata7">
    <rdf:RDF>
      <cc:Work
         rdf:about="">
        <dc:format>image/svg+xml</dc:format>
        <dc:type
           rdf:resource="http://purl.org/dc/dcmitype/StillImage" />
        <dc:title />
      </cc:Work>
    </rdf:RDF>
  </metadata>
  <g
     inkscape:groupmode="layer"
     id="layer5"
     inkscape:label="merge"
     transform="translate(0,3.4455878)">
    <text
       xml:space="preserve"
       style="font-style:normal;font-variant:normal;font-weight:normal;font-stretch:normal;font-size:40px;line-height:125%;font-family:HACKED;-inkscape-font-specification:HACKED;letter-spacing:0px;word-spacing:0px;fill:#000000;fill-opacity:1;stroke:none;stroke-width:1px;stroke-linecap:butt;stroke-linejoin:miter;stroke-opacity:1"
       x="9.5788937"
       y="70.500015"
       id="text3344"
       sodipodi:linespacing="125%"><tspan
         sodipodi:role="line"
         id="tspan3346"
         x="9.5788937"
         y="70.500015">lowcities</tspan></text>
    <path
       style="fill:none;fill-rule:evenodd;stroke:#000000;stroke-width:1px;stroke-linecap:butt;stroke-linejoin:miter;stroke-opacity:1"
       d="m 0.29318,38.054412 10,0 a 1,1 0 0 0 1,-1 c 0,0 0,-10.64513 0,-14 l 8,0 c 0,3.35487 0,14 0,14 a 1,1 0 0 0 1,1 l 5,0 a 1,1 0 0 0 1,-1 c 0,0 0,-19.342273 0,-24 l 13,0 c 0,3.35487 0,14 0,14 a 1,1 0 0 0 1,1 l 4,0 c 0,2.532625 0,9 0,9 a 1,1 0 0 0 1,1 l 10,0 a 1,1 0 0 0 1,-1 c 0,0 0,-14.95238 0,-19 l 8,0 c 0,4.04762 0,19 0,19 a 1.0000088,1 0 0 0 1.000009,1 l 9.999991,0 a 1,1 0 0 0 1,-1 c 0,0 0,-32.8118403 0,-38.9999998 l 8,0 c 0,2.53262528 0,8.9999999 0,8.9999999 0,0 0,9.9999999 0,9.9999999 a 1,1 0 0 0 1,1 l 9,0 c 0,2.532618 0,9 0,9 a 1,1 0 0 0 1,1 l 4,0 c 0,2.532625 0,9 0,9 a 1,1 0 0 0 1,1 l 10,0 a 1,1 0 0 0 1,-1 c 0,0 0,-10.64513 0,-14 l 8,0 c 0,3.35487 0,14 0,14 a 1,1 0 0 0 1,1 l 5,0 a 1,1 0 0 0 1,-1 c 0,0 0,-19.342252 0,-24 l 4,0 a 1,1 0 0 0 1,-1 c 0,0 0,-6.4673745 0,-8.9999997 l 13,0 c 0,5.209181 0,28.9999997 0,28.9999997 a 1,1 0 0 0 1,1 l 9,0 c 0,1.459158 0,4 0,4 a 1,1 0 0 0 1,1 l 10,0 a 1,1 90 0 0 0,-2 l -9,0 c 0,-1.459158 0,-4 0,-4 a 1,1 0 0 0 -1,-1 l -9,0 c 0,-5.209235 0,-28.9999734 0,-28.9999734 a 1,1.0000263 0 0 0 -1,-1.0000263 l -15,0 a 1,1 0 0 0 -1,1 c 0,0 0,6.4673745 0,8.9999997 l -4,0 a 1,1 0 0 0 -1,1 c 0,0 0,19.342252 0,24 l -3,0 c 0,-3.35487 0,-14 0,-14 a 1,1 0 0 0 -1,-1 l -10,0 a 1,1 0 0 0 -1,1 c 0,0 0,10.64513 0,14 l -8,0 c 0,-2.532625 0,-9 0,-9 a 1.0000022,1 0 0 0 -1,-1 l -4,0 c 0,-2.532624 0,-8.999991 0,-8.999991 a 1,1.0000087 0 0 0 -1,-1.000009 l -9,0 c 0,-2.532625 0,-8.9999999 0,-8.9999999 0,0 0,-9.9999999 0,-9.9999999 a 1,1 0 0 0 -1,-1 l -10,0 a 1,1.000035 0 0 0 -1,1.000035 c 0,0 0,32.8117168 0,38.9999648 l -8,0 c 0,-4.04762 0,-19 0,-19 a 1,1 0 0 0 -1,-1 l -9.999991,0 a 1.0000088,1 0 0 0 -1.000009,1 c 0,0 0,14.95238 0,19 l -8,0 c 0,-2.532625 0,-9 0,-9 a 1,1 0 0 0 -1,-1 l -4,0 c 0,-3.35487 0,-14 0,-14 a 1,1 0 0 0 -1,-1 l -15,0 a 1,1.0000109 0 0 0 -1,1.000011 c 0,0 0,19.342242 0,23.999989 l -3,0 c 0,-3.35487 0,-14 0,-14 a 1,1 0 0 0 -1,-1 l -9.999996,0 a 1.0000044,1 0 0 0 -1.000004,1 c 0,0 0,10.64513 0,14 l -9,0 a 1,1 90 0 0 0,2 z"
       id="path3361"
       inkscape:connector-curvature="0"
       inkscape:path-effect="#path-effect3368"
       inkscape:original-d="m 0.29318,37.054412 10,0 0,-15 10,0 0,15 5,0 0,-25 15,0 0,15 5,0 0,10 10,0 0,-20 10,0 0,20 10,0 0,-39.9999998 10,0 0,19.9999998 10,0 0,10 5,0 0,10 10,0 0,-15 10,0 0,15 5,0 0,-25 5,0 0,-9.9999997 15,0 0,29.9999997 10,0 0,5 10,0" />
    <path
       style="fill:none;fill-rule:evenodd;stroke:#000000;stroke-width:1.00160503px;stroke-linecap:butt;stroke-linejoin:miter;stroke-opacity:1"
       d="m 0,86.766641 10.03213,0 -1.001605,-1.001605 C 0,85.765036 0,100.76504 9.030525,100.76504 a 1.0016094,1.001605 0 0 0 1.001609,1.0016 l 10.032116,0 a 1.001605,1.001605 0 0 0 1.001605,-1.0016 c 0,0 0,-10.641739 0,-13.998399 l 3.01286,0 c 0,4.660584 0,23.998389 0,23.998389 a 1.001605,1.0016159 0 0 0 1.001605,1.00161 l 15.04819,0 a 1.001605,1.001605 0 0 0 1.001605,-1.0016 c 0,0 0,-10.64174 0,-13.998399 l 4.014455,0 a 1.001605,1.001605 0 0 0 1.001605,-1.001605 c 0,0 0,-6.464644 0,-8.998395 l 8.02892,0 c 0,4.049967 0,18.998399 0,18.998399 a 1.0016138,1.001605 0 0 0 1.001614,1.0016 l 10.032111,0 a 1.001605,1.001605 0 0 0 1.001605,-1.0016 c 0,0 0,-14.948432 0,-18.998399 l 8.02892,0 c 0,6.192315 0,38.998359 0,38.998359 a 1.001605,1.00164 0 0 0 1.001605,1.00164 l 10.03213,0 a 1.001605,1.001605 0 0 0 1.001605,-1.0016 c 0,0 0,-10 0,-10 0,0 0,-6.46464 0,-8.9984 l 9.030515,0 a 1.001605,1.0016138 0 0 0 1.001605,-1.00161 c 0,0 0,-6.464638 0,-8.998389 l 4.014465,0 a 1.0016072,1.001605 0 0 0 1.0016,-1.001605 c 0,0 0,-6.464644 0,-8.998395 l 8.02892,0 c 0,3.35666 -10e-6,13.998399 0,13.998399 a 1.001605,1.001605 0 0 0 1.0016,1.0016 l 10.03213,0 a 1.001605,1.001605 0 0 0 1.0016,-1.0016 c 0,0 1e-5,-10.641739 1e-5,-13.998399 l 3.01285,0 c 0,4.660585 -1e-5,23.998399 -1e-5,23.998399 a 1.001605,1.001605 0 0 0 1.00161,1.0016 l 4.01447,0 c -1e-5,2.53376 -1e-5,8.9984 -1e-5,8.9984 a 1.001605,1.001605 0 0 0 1.00161,1.0016 l 15.04819,0 a 1.001605,1.0016313 0 0 0 1.00161,-1.00163 c 0,0 0,-23.785854 0,-28.998369 l 9.03051,0 a 1.001605,1.001605 0 0 0 1.00161,-1.001605 c 0,0 0,-2.538979 0,-3.998395 l 9.03052,0 a 1.001605,1.001605 90 0 0 0,-2.00321 l -10.03213,0 a 1.001605,1.001605 0 0 0 -1.00161,1.001605 c 0,0 0,2.538979 0,3.998395 l -9.03051,0 a 1.001605,1.001605 0 0 0 -1.00161,1.001605 c 0,0 0,23.785934 0,28.998404 l -13.04497,0 c 0,-2.53376 0,-8.9984 0,-8.9984 a 1.001605,1.001605 0 0 0 -1.00161,-1.0016 l -4.01447,0 c 0,-4.66059 10e-6,-23.998404 0,-23.998404 a 1.001605,1.001605 0 0 0 -1.0016,-1.001605 l -5.01606,0 a 1.001605,1.001605 0 0 0 -1.0016,1.001605 c 0,0 -1e-5,10.641739 -1e-5,13.998399 l -8.02892,0 c 0,-3.35666 1e-5,-13.998399 1e-5,-13.998399 a 1.001605,1.001605 0 0 0 -1.00161,-1.001605 l -10.03212,0 a 1.001605,1.001605 0 0 0 -1.001605,1.001605 c 0,0 0,6.464644 0,8.998395 l -4.014465,0 a 1.001605,1.001605 0 0 0 -1.001605,1.001605 c 0,0 0,6.464654 0,8.998404 l -9.030515,0 a 1.001605,1.001605 0 0 0 -1.001605,1.0016 c 0,0 0,10 0,10 0,0 0,6.46464 0,8.9984 l -8.02892,0 c 0,-6.19223 0,-38.998404 0,-38.998404 A 1.001605,1.001605 0 0 0 75.24095,84.763431 l -10.032121,0 a 1.0016138,1.001605 0 0 0 -1.001614,1.001605 c 0,0 0,14.948434 0,18.998404 l -8.02891,0 c 0,-4.04997 0,-18.998404 0,-18.998404 A 1.001605,1.001605 0 0 0 55.1767,84.763431 l -10.03213,0 a 1.001605,1.001605 0 0 0 -1.001605,1.001605 c 0,0 0,6.464644 0,8.998395 l -4.014455,0 a 1.001605,1.001605 0 0 0 -1.001605,1.001605 c 0,0 0,10.641744 0,13.998404 l -13.04498,-1e-5 c 0,-4.66056 0,-23.998394 0,-23.998394 A 1.001605,1.001605 0 0 0 25.08032,84.763431 l -5.01607,0 a 1.001605,1.001605 0 0 0 -1.001605,1.001605 c 0,0 0,10.641739 0,13.998399 l -8.02891,0 c 0,-3.35666 0,-13.998399 0,-13.998399 A 1.001605,1.001605 0 0 0 10.03213,84.763431 l -10.03213,0 a 1.001605,1.001605 90 0 0 0,2.00321 z"
       id="path3361-5"
       inkscape:connector-curvature="0"
       inkscape:path-effect="#path-effect3370"
       inkscape:original-d="m 0,85.765036 10.03213,0 0,15.000004 10.03212,0 0,-15.000004 5.01607,0 0,25.000004 15.04819,0 0,-15.000004 5.01606,0 0,-10 10.03213,0 0,20.000004 10.03212,0 0,-20.000004 10.03213,0 0,40.000004 10.03213,0 0,-20 10.03212,0 0,-10.000004 5.01607,0 0,-10 10.03212,0 0,15.000004 10.03213,0 0,-15.000004 5.01606,0 0,25.000004 5.01607,0 0,10 15.04819,0 0,-30.000004 10.03212,0 0,-5 10.03213,0" />
    <text
       xml:space="preserve"
       style="font-style:normal;font-weight:normal;font-size:12.5px;line-height:125%;font-family:sans-serif;letter-spacing:0px;word-spacing:0px;fill:#000000;fill-opacity:1;stroke:none;stroke-width:1px;stroke-linecap:butt;stroke-linejoin:miter;stroke-opacity:1"
       x="6.5825477"
       y="81.825241"
       id="text3380"
       sodipodi:linespacing="125%"><tspan
         sodipodi:role="line"
         id="tspan3382"
         x="6.5825477"
         y="81.825241"
         style="font-style:normal;font-variant:normal;font-weight:normal;font-stretch:normal;font-family:HACKED;-inkscape-font-specification:HACKED">design/development/music/art</tspan></text>
    <rect
       style="fill:#808080"
       id="rect4207"
       width="0"
       height="5.000001"
       x="-78.820305"
       y="167.33978" />
    <rect
       style="fill:#808080"
       id="rect4213"
       width="2.6905124"
       height="2.6905124"
       x="-4.1757164"
       y="63.629055" />
    <rect
       y="10.557518"
       x="-4.1757164"
       height="2.6905124"
       width="2.6905124"
       id="rect4215"
       style="fill:#808080" />
    <rect
       style="fill:#808080"
       id="rect4217"
       width="2.6905124"
       height="2.6905124"
       x="-21.866228"
       y="10.557518" />
    <rect
       y="10.557518"
       x="-39.55674"
       height="2.6905124"
       width="2.6905124"
       id="rect4219"
       style="fill:#808080" />
    <rect
       style="fill:#808080"
       id="rect4221"
       width="2.6905124"
       height="2.6905124"
       x="-57.247253"
       y="10.557518" />
    <a
       id="a4247">
      <rect
         style="fill:#808080"
         id="rect4223"
         width="2.6905124"
         height="2.6905124"
         x="-57.247253"
         y="81.319565" />
    </a>
    <rect
       y="63.629055"
       x="-21.866228"
       height="2.6905124"
       width="2.6905124"
       id="rect4225"
       style="fill:#808080" />
    <rect
       style="fill:#808080"
       id="rect4227"
       width="2.6905124"
       height="2.6905124"
       x="-39.55674"
       y="63.629055" />
    <rect
       y="63.629055"
       x="-57.247253"
       height="2.6905124"
       width="2.6905124"
       id="rect4229"
       style="fill:#808080" />
    <rect
       style="fill:#808080"
       id="rect4231"
       width="2.6905124"
       height="2.6905124"
       x="-4.1757164"
       y="45.938541" />
    <rect
       y="45.938541"
       x="-21.866228"
       height="2.6905124"
       width="2.6905124"
       id="rect4233"
       style="fill:#808080" />
    <rect
       style="fill:#808080"
       id="rect4235"
       width="2.6905124"
       height="2.6905124"
       x="-39.55674"
       y="45.938541" />
    <rect
       y="45.938541"
       x="-57.247253"
       height="2.6905124"
       width="2.6905124"
       id="rect4237"
       style="fill:#808080" />
    <rect
       style="fill:#808080"
       id="rect4239"
       width="2.6905124"
       height="2.6905124"
       x="-4.1757164"
       y="28.24803" />
    <rect
       y="28.24803"
       x="-21.866228"
       height="2.6905124"
       width="2.6905124"
       id="rect4241"
       style="fill:#808080" />
    <rect
       style="fill:#808080"
       id="rect4243"
       width="2.6905124"
       height="2.6905124"
       x="-39.55674"
       y="28.24803" />
    <rect
       y="28.24803"
       x="-57.247253"
       height="2.6905124"
       width="2.6905124"
       id="rect4245"
       style="fill:#808080" />
  </g>
</svg>
