<?xml version="1.0" encoding="UTF-8" standalone="no"?>
<svg
   xmlns:dc="http://purl.org/dc/elements/1.1/"
   xmlns:cc="http://creativecommons.org/ns#"
   xmlns:rdf="http://www.w3.org/1999/02/22-rdf-syntax-ns#"
   xmlns:svg="http://www.w3.org/2000/svg"
   xmlns="http://www.w3.org/2000/svg"
   version="1.1"
   id="svg2"
   viewBox="0 0 165.53009 126.26585"
   height="126.26585"
   width="165.53009">
  <defs
     id="defs4" />
  <metadata
     id="metadata7">
    <rdf:RDF>
      <cc:Work
         rdf:about="">
        <dc:format>image/svg+xml</dc:format>
        <dc:type
           rdf:resource="http://purl.org/dc/dcmitype/StillImage" />
        <dc:title></dc:title>
      </cc:Work>
    </rdf:RDF>
  </metadata>
  <g
     id="layer5">
    <text
       id="text3344"
       y="70.500015"
       x="9.5788937"
       style="font-style:normal;font-variant:normal;font-weight:normal;font-stretch:normal;font-size:40px;line-height:125%;font-family:HACKED;-inkscape-font-specification:HACKED;letter-spacing:0px;word-spacing:0px;fill:#000000;fill-opacity:1;stroke:none;stroke-width:1px;stroke-linecap:butt;stroke-linejoin:miter;stroke-opacity:1"
       xml:space="preserve"><tspan
         y="70.500015"
         x="9.5788937"
         id="tspan3346">lowcities</tspan></text>
    <path
       id="path3361"
       d="m 0.29318,40.499996 10,0 0,-15 10,0 0,15 5,0 0,-25 15,0 0,15 5,0 0,10 10,0 0,-20 10,0 0,20 10,0 0,-39.99999975 10,0 0,19.99999975 10,0 0,10 5,0 0,10 10,0 0,-15 10,0 0,15 5,0 0,-25 5,0 0,-9.9999997 15,0 0,29.9999997 10,0 0,5 10,0"
       style="fill:none;fill-rule:evenodd;stroke:#000000;stroke-width:1px;stroke-linecap:butt;stroke-linejoin:miter;stroke-opacity:1" />
    <path
       id="path3361-5"
       d="m 0,85.765036 10.03213,0 0,15.000004 10.03212,0 0,-15.000004 5.01607,0 0,25.000004 15.04819,0 0,-15.000004 5.01606,0 0,-10 10.03213,0 0,20.000004 10.03212,0 0,-20.000004 10.03213,0 0,40.000004 10.03213,0 0,-20 10.03212,0 0,-10.000004 5.01607,0 0,-10 10.03212,0 0,15.000004 10.03213,0 0,-15.000004 5.01606,0 0,25.000004 5.01607,0 0,10 15.04819,0 0,-30.000004 10.03212,0 0,-5 10.03213,0"
       style="fill:none;fill-rule:evenodd;stroke:#000000;stroke-width:1.00160503px;stroke-linecap:butt;stroke-linejoin:miter;stroke-opacity:1" />
    <text
       id="text3380"
       y="81.825241"
       x="6.5825477"
       style="font-style:normal;font-weight:normal;font-size:12.5px;line-height:125%;font-family:sans-serif;letter-spacing:0px;word-spacing:0px;fill:#000000;fill-opacity:1;stroke:none;stroke-width:1px;stroke-linecap:butt;stroke-linejoin:miter;stroke-opacity:1"
       xml:space="preserve"><tspan
         style="font-style:normal;font-variant:normal;font-weight:normal;font-stretch:normal;font-family:HACKED;-inkscape-font-specification:HACKED"
         y="81.825241"
         x="6.5825477"
         id="tspan3382">design/development/music/art</tspan></text>
  </g>
</svg>
