<?xml version="1.0" encoding="UTF-8" standalone="no"?>
<!-- Created with Inkscape (http://www.inkscape.org/) -->

<svg
   xmlns:dc="http://purl.org/dc/elements/1.1/"
   xmlns:cc="http://creativecommons.org/ns#"
   xmlns:rdf="http://www.w3.org/1999/02/22-rdf-syntax-ns#"
   xmlns:svg="http://www.w3.org/2000/svg"
   xmlns="http://www.w3.org/2000/svg"
   xmlns:sodipodi="http://sodipodi.sourceforge.net/DTD/sodipodi-0.dtd"
   xmlns:inkscape="http://www.inkscape.org/namespaces/inkscape"
   width="165.53009"
   height="129.71143"
   viewBox="0 0 165.53009 129.71143"
   id="svg2"
   version="1.1"
   inkscape:version="0.91 r13725"
   sodipodi:docname="lowcities.svg">
  <defs
     id="defs4">
    <inkscape:perspective
       sodipodi:type="inkscape:persp3d"
       inkscape:vp_x="0 : 63.132925 : 1"
       inkscape:vp_y="0 : 1000 : 0"
       inkscape:vp_z="165.53009 : 63.132925 : 1"
       inkscape:persp3d-origin="82.765045 : 42.088617 : 1"
       id="perspective7354" />
  </defs>
  <sodipodi:namedview
     id="base"
     pagecolor="#ffffff"
     bordercolor="#666666"
     borderopacity="1.0"
     inkscape:pageopacity="0.0"
     inkscape:pageshadow="2"
     inkscape:zoom="4.3299648"
     inkscape:cx="67.750579"
     inkscape:cy="49.907305"
     inkscape:document-units="px"
     inkscape:current-layer="layer5"
     showgrid="true"
     inkscape:window-width="1440"
     inkscape:window-height="851"
     inkscape:window-x="67"
     inkscape:window-y="0"
     inkscape:window-maximized="0"
     showguides="false"
     units="px"
     fit-margin-top="0"
     fit-margin-left="0"
     fit-margin-right="0"
     fit-margin-bottom="0">
    <inkscape:grid
       type="xygrid"
       id="grid3359"
       originx="-104.70682"
       originy="-684.23417" />
  </sodipodi:namedview>
  <metadata
     id="metadata7">
    <rdf:RDF>
      <cc:Work
         rdf:about="">
        <dc:format>image/svg+xml</dc:format>
        <dc:type
           rdf:resource="http://purl.org/dc/dcmitype/StillImage" />
        <dc:title></dc:title>
      </cc:Work>
    </rdf:RDF>
  </metadata>
  <g
     inkscape:groupmode="layer"
     id="layer5"
     inkscape:label="merge"
     transform="translate(0,3.4455878)">
    <text
       xml:space="preserve"
       style="font-style:normal;font-variant:normal;font-weight:normal;font-stretch:normal;font-size:40px;line-height:125%;font-family:HACKED;-inkscape-font-specification:HACKED;letter-spacing:0px;word-spacing:0px;fill:#000000;fill-opacity:1;stroke:none;stroke-width:1px;stroke-linecap:butt;stroke-linejoin:miter;stroke-opacity:1"
       x="9.5788937"
       y="70.500015"
       id="text3344"
       sodipodi:linespacing="125%"><tspan
         sodipodi:role="line"
         id="tspan3346"
         x="9.5788937"
         y="70.500015">lowcities</tspan></text>
    <path
       style="fill:none;fill-rule:evenodd;stroke:#000000;stroke-width:1px;stroke-linecap:butt;stroke-linejoin:miter;stroke-opacity:1"
       d="m 0.29318,37.054412 10,0 0,-15 10,0 0,15 5,0 0,-25 15,0 0,15 5,0 0,10 10,0 0,-20 10,0 0,20 10,0 0,-39.9999998 10,0 0,19.9999998 10,0 0,10 5,0 0,10 10,0 0,-15 10,0 0,15 5,0 0,-25 5,0 0,-9.9999997 15,0 0,29.9999997 10,0 0,5 10,0"
       id="path3361"
       inkscape:connector-curvature="0" />
    <path
       style="fill:none;fill-rule:evenodd;stroke:#000000;stroke-width:1.00160503px;stroke-linecap:butt;stroke-linejoin:miter;stroke-opacity:1"
       d="m 0,85.765036 10.03213,0 0,15.000004 10.03212,0 0,-15.000004 5.01607,0 0,25.000004 15.04819,0 0,-15.000004 5.01606,0 0,-10 10.03213,0 0,20.000004 10.03212,0 0,-20.000004 10.03213,0 0,40.000004 10.03213,0 0,-20 10.03212,0 0,-10.000004 5.01607,0 0,-10 10.03212,0 0,15.000004 10.03213,0 0,-15.000004 5.01606,0 0,25.000004 5.01607,0 0,10 15.04819,0 0,-30.000004 10.03212,0 0,-5 10.03213,0"
       id="path3361-5"
       inkscape:connector-curvature="0" />
    <text
       xml:space="preserve"
       style="font-style:normal;font-weight:normal;font-size:12.5px;line-height:125%;font-family:sans-serif;letter-spacing:0px;word-spacing:0px;fill:#000000;fill-opacity:1;stroke:none;stroke-width:1px;stroke-linecap:butt;stroke-linejoin:miter;stroke-opacity:1"
       x="6.5825477"
       y="81.825241"
       id="text3380"
       sodipodi:linespacing="125%"><tspan
         sodipodi:role="line"
         id="tspan3382"
         x="6.5825477"
         y="81.825241"
         style="font-style:normal;font-variant:normal;font-weight:normal;font-stretch:normal;font-family:HACKED;-inkscape-font-specification:HACKED">design/development/music/art</tspan></text>
    <rect
       style="fill:#808080"
       id="rect4207"
       width="0"
       height="5.000001"
       x="-78.820305"
       y="167.33978" />
    <rect
       style="fill:#808080"
       id="rect4213"
       width="2.6905124"
       height="2.6905124"
       x="-4.1757164"
       y="63.629055" />
    <rect
       y="10.557518"
       x="-4.1757164"
       height="2.6905124"
       width="2.6905124"
       id="rect4215"
       style="fill:#808080" />
    <rect
       style="fill:#808080"
       id="rect4217"
       width="2.6905124"
       height="2.6905124"
       x="-21.866228"
       y="10.557518" />
    <rect
       y="10.557518"
       x="-39.55674"
       height="2.6905124"
       width="2.6905124"
       id="rect4219"
       style="fill:#808080" />
    <rect
       style="fill:#808080"
       id="rect4221"
       width="2.6905124"
       height="2.6905124"
       x="-57.247253"
       y="10.557518" />
    <a
       id="a4247">
      <rect
         style="fill:#808080"
         id="rect4223"
         width="2.6905124"
         height="2.6905124"
         x="-57.247253"
         y="81.319565" />
    </a>
    <rect
       y="63.629055"
       x="-21.866228"
       height="2.6905124"
       width="2.6905124"
       id="rect4225"
       style="fill:#808080" />
    <rect
       style="fill:#808080"
       id="rect4227"
       width="2.6905124"
       height="2.6905124"
       x="-39.55674"
       y="63.629055" />
    <rect
       y="63.629055"
       x="-57.247253"
       height="2.6905124"
       width="2.6905124"
       id="rect4229"
       style="fill:#808080" />
    <rect
       style="fill:#808080"
       id="rect4231"
       width="2.6905124"
       height="2.6905124"
       x="-4.1757164"
       y="45.938541" />
    <rect
       y="45.938541"
       x="-21.866228"
       height="2.6905124"
       width="2.6905124"
       id="rect4233"
       style="fill:#808080" />
    <rect
       style="fill:#808080"
       id="rect4235"
       width="2.6905124"
       height="2.6905124"
       x="-39.55674"
       y="45.938541" />
    <rect
       y="45.938541"
       x="-57.247253"
       height="2.6905124"
       width="2.6905124"
       id="rect4237"
       style="fill:#808080" />
    <rect
       style="fill:#808080"
       id="rect4239"
       width="2.6905124"
       height="2.6905124"
       x="-4.1757164"
       y="28.24803" />
    <rect
       y="28.24803"
       x="-21.866228"
       height="2.6905124"
       width="2.6905124"
       id="rect4241"
       style="fill:#808080" />
    <rect
       style="fill:#808080"
       id="rect4243"
       width="2.6905124"
       height="2.6905124"
       x="-39.55674"
       y="28.24803" />
    <rect
       y="28.24803"
       x="-57.247253"
       height="2.6905124"
       width="2.6905124"
       id="rect4245"
       style="fill:#808080" />
  </g>
</svg>
