<?xml version="1.0" encoding="UTF-8"?>
<svg width="280" height="220" version="1.1" viewBox="0 0 168.5349 131.71303" xmlns="http://www.w3.org/2000/svg" xmlns:cc="http://creativecommons.org/ns#" xmlns:dc="http://purl.org/dc/elements/1.1/" xmlns:rdf="http://www.w3.org/1999/02/22-rdf-syntax-ns#">
<metadata>
<rdf:RDF>
<cc:Work rdf:about="">
<dc:format>image/svg+xml</dc:format>
<dc:type rdf:resource="http://purl.org/dc/dcmitype/StillImage"/>
<dc:title/>
</cc:Work>
</rdf:RDF>
</metadata>
<g transform="translate(1.5024 4.4456)">
<path d="m0.29318 38.054h10a1 1 0 0 0 1 -1v-14h8v14a1 1 0 0 0 1 1h5a1 1 0 0 0 1 -1v-24h13v14a1 1 0 0 0 1 1h4v9a1 1 0 0 0 1 1h10a1 1 0 0 0 1 -1v-19h8v19a1 1 0 0 0 1 1h10a1 1 0 0 0 1 -1v-39h8v9 10a1 1 0 0 0 1 1h9v9a1 1 0 0 0 1 1h4v9a1 1 0 0 0 1 1h10a1 1 0 0 0 1 -1v-14h8v14a1 1 0 0 0 1 1h5a1 1 0 0 0 1 -1v-24h4a1 1 0 0 0 1 -1v-9h13v29a1 1 0 0 0 1 1h9v4a1 1 0 0 0 1 1h10a1 1 90 0 0 0 -2h-9v-4a1 1 0 0 0 -1 -1h-9v-29a1 1 0 0 0 -1 -1h-15a1 1 0 0 0 -1 1v9h-4a1 1 0 0 0 -1 1v24h-3v-14a1 1 0 0 0 -1 -1h-10a1 1 0 0 0 -1 1v14h-8v-9a1 1 0 0 0 -1 -1h-4v-9a1 1 0 0 0 -1 -1h-9v-9-10a1 1 0 0 0 -1 -1h-10a1 1 0 0 0 -1 1v39h-8v-19a1 1 0 0 0 -1 -1h-10a1 1 0 0 0 -1 1v19h-8v-9a1 1 0 0 0 -1 -1h-4v-14a1 1 0 0 0 -1 -1h-15a1 1 0 0 0 -1 1v24h-3v-14a1 1 0 0 0 -1 -1h-10a1 1 0 0 0 -1 1v14h-9a1 1 90 0 0 0 2z" fill="none" stroke="#999" stroke-width="1px"/>
<path d="m165.53 84.763h-10.032a1.0016 1.0016 0 0 0 -1.0016 1.0016v15l1.0016-1.0016h-9.0305v-13.998a1.0016 1.0016 0 0 0 -1.0016 -1.0016h-5.0161a1.0016 1.0016 0 0 0 -1.0016 1.0016v23.998h-13.045v-13.998a1.0016 1.0016 0 0 0 -1.0016 -1.0016h-4.0145v-8.9984a1.0016 1.0016 0 0 0 -1.0016 -1.0016h-10.032a1.0016 1.0016 0 0 0 -1.0016 1.0016s-1e-5 14.948 0 18.998h-8.0289c0-4.05 1e-5 -18.998 0-18.998a1.0016 1.0016 0 0 0 -1.0016 -1.0016h-10.032a1.0016 1.0016 0 0 0 -1.0016 1.0016v38.998h-8.0289v-8.9984-10a1.0016 1.0016 0 0 0 -1.0016 -1.0016h-9.0305v-8.9984a1.0016 1.0016 0 0 0 -1.0016 -1.0016h-4.0145v-8.9984a1.0016 1.0016 0 0 0 -1.0016 -1.0016h-10.032a1.0016 1.0016 0 0 0 -1.0016 1.0016v13.998h-8.0289v-13.998a1.0016 1.0016 0 0 0 -1.0016 -1.0016h-5.0161a1.0016 1.0016 0 0 0 -1.0016 1.0016v23.998h-4.0145a1.0016 1.0016 0 0 0 -1.0016 1.0016v8.9984l-13.045 1e-5v-28.998a1.0016 1.0016 0 0 0 -1.0016 -1.0016h-9.0305v-3.9984a1.0016 1.0016 0 0 0 -1.0016 -1.0016h-10.032a1.0016 1.0016 90 0 0 0 2.0032h9.0305v3.9984a1.0016 1.0016 0 0 0 1.0016 1.0016h9.0305v28.998a1.0016 1.0016 0 0 0 1.0016 1.0016h15.048a1.0016 1.0016 0 0 0 1.0016 -1.0016v-8.9984h4.0145a1.0016 1.0016 0 0 0 1.0016 -1.0016v-23.998h3.0128v13.998a1.0016 1.0016 0 0 0 1.0016 1.0016h10.032a1.0016 1.0016 0 0 0 1.0016 -1.0016v-13.998h8.0289v8.9984a1.0016 1.0016 0 0 0 1.0016 1.0016h4.0145v8.9984a1.0016 1.0016 0 0 0 1.0016 1.0016h9.0305v8.9984 10a1.0016 1.0016 0 0 0 1.0016 1.0016h10.032a1.0016 1.0016 0 0 0 1.0016 -1.0016v-38.998h8.0289v18.998a1.0016 1.0016 0 0 0 1.0016 1.0016h10.032a1.0016 1.0016 0 0 0 1.0016 -1.0016c-1e-5 0 0-14.948 0-18.998h8.0289c1e-5 2.5338 1e-5 8.9984 1e-5 8.9984a1.0016 1.0016 0 0 0 1.0016 1.0016h4.0145c0 3.3567-1e-5 13.998-1e-5 13.998a1.0016 1.0016 0 0 0 1.0016 1.0016h15.048a1.0016 1.0016 0 0 0 1.0016 -1.0016c-1e-5 0 0-19.338 0-23.998h3.0128c0 3.3567 1e-5 13.998 0 13.998a1.0016 1.0016 0 0 0 1.0016 1.0016h10.032a1.0016 1.0016 0 0 0 1.0016 -1.0016c-1e-5 0 0-10.642 0-13.998h9.0305a1.0016 1.0016 90 0 0 0 -2.0032z" fill="none" stroke="#999" stroke-width="1.0016px"/>
<a transform="translate(74.366 13.626)"/>
</g>
</svg>
